<?xml version="1.0" encoding="UTF-8"?>
<svg width="1091px" height="383px" viewBox="0 0 1091 383" version="1.1" xmlns="http://www.w3.org/2000/svg" xmlns:xlink="http://www.w3.org/1999/xlink">
    <title>bg_center_2@2x</title>
    <g id="Design" stroke="none" stroke-width="1" fill="none" fill-rule="evenodd">
        <g id="Why-Childrens-dentistry-UI-New-Copy" transform="translate(-207.000000, -708.000000)">
            <g id="bg_center_2" transform="translate(207.000000, 708.000000)">
                <path d="M1037.83921,221.791362 C1035.32143,205.119841 1032.41565,188.884202 1030.62968,172.521076 C1029.93606,166.174704 1030.68221,159.161762 1032.71649,153.129856 C1035.82284,143.92537 1041.44577,143.009899 1046.49926,151.073082 C1051.6375,159.27225 1054.81309,168.741421 1059.34248,178.748461 C1059.60751,176.178102 1059.59318,173.854215 1060.1125,171.662671 C1062.72937,160.633315 1064.63592,149.318633 1068.47408,138.737299 C1071.29868,130.950942 1077.97816,131.255694 1082.1494,138.645023 C1084.19204,142.263196 1086.26692,146.286895 1086.75281,150.322736 C1090.57903,182.071595 1094.94606,213.775531 1083.79927,245.229351 C1080.89827,253.415163 1076.34022,255.968525 1068.82029,256.190714 C1054.326,256.616882 1039.83649,257.211816 1025.34459,257.730259 C1022.97006,257.816464 1020.55733,258.181923 1018.22698,257.886885 C1012.8822,257.21303 1006.18243,258.922556 1003.94997,251.550226 C1001.74019,244.253172 1003.3244,236.71936 1009.34608,232.77458 C1016.57233,228.039388 1025.19059,225.470242 1033.28595,222.164106 C1034.81286,221.541246 1036.71463,221.864211 1037.83921,221.791362" id="Fill-15" fill="#486DB2"></path>
                <path d="M19.7039624,194.178679 C19.6979951,194.22045 19.6963677,194.22045 19.702335,194.178136 C19.9686945,193.930764 19.9697794,193.930764 19.7039624,194.178679 Z M15.6391065,225.147856 C17.8209139,234.572438 19.983976,240.923823 22.1429629,239.368365 C23.8455389,238.14253 25.3500651,236.637909 26.8676316,235.152148 C28.8782849,232.190464 30.8807881,229.222221 32.5964044,226.067847 C33.1758833,225.000264 39.7848773,201.710214 39.8468188,191.045037 C39.8484488,190.814629 39.6577342,189.725726 39.5477066,189.384624 C38.4555803,185.979344 43.7719532,184.53458 44.8567443,187.912802 C47.340109,195.653193 51.9441548,200.183454 49.626239,208.798739 C47.5756497,216.419417 43.2421905,223.917921 39.7164157,230.93429 C38.7726229,232.811171 37.735918,234.623276 36.5867404,236.359124 C35.2574434,239.030543 33.9273314,241.702782 32.5980344,244.375021 C32.5972194,244.374201 32.7259925,244.343042 32.7259925,244.343042 C32.0169254,244.794019 26.5432538,256.49972 30.128525,258.385621 C33.1383924,257.374614 36.0830583,256.048744 38.9535573,254.365373 C37.4685916,254.127586 37.4685916,254.127586 38.9527423,254.364553 C43.0384356,252.039156 47.1241289,249.714579 51.2090071,247.390821 C51.9718655,246.835711 52.7355388,246.28142 53.4992122,245.726309 C53.5000272,245.734509 53.5000272,245.743528 53.5024723,245.750908 C76.5691572,235.959805 79.1315788,220.588077 80.7053817,219.689404 C80.885501,219.520493 82.1430763,212.76569 82.7217402,212.582839 C84.4797375,199.431554 77.3580962,173.234757 76.7150457,170.789646 C76.7150457,170.789646 75.6636704,166.798097 75.1379828,164.802322 C70.9634523,159.993276 76.6914101,157.429272 77.6074922,153.773905 C77.8047269,153.017085 78.0027767,152.260265 78.2016415,151.503445 L78.2016415,151.501805 C90.8311853,125.148396 72.8909737,117.625293 72.7067793,117.360447 C64.340603,112.344772 44.2666701,119.447237 38.7709929,120.850183 C40.439338,122.294947 40.439338,122.294947 38.7709929,120.850183 C34.7725067,118.271419 30.7740205,115.691835 26.7755343,113.113072 C25.6891132,112.882664 19.2480133,113.022876 18.1526269,113.366438 C18.1526269,113.366438 15.9333285,114.021584 14.5869161,114.528317 C14.5869161,114.532417 14.5861011,114.537336 14.5861011,114.540616 C14.5861011,114.536516 14.5861011,114.532417 14.5861011,114.528317 C4.91344844,116.623306 0.484631898,124.635103 1.29802146,138.562068 C-2.39483237,151.247618 2.74468127,163.52729 4.91344844,175.898796 C8.57614655,186.901795 12.1320771,209.997516 15.6391065,225.147036 L15.6391065,225.147856 Z" id="Fill-10" fill="#EA958E"></path>
                <path d="M116.493155,49.709232 C116.329286,51.4953344 116.16387,53.2798944 116,55.0644545 C120.892906,59.3585038 126.272784,67.5101024 130.558135,66.9748887 C135.97357,66.294689 143.442016,59.2104331 144.71278,53.6747496 C146.592645,45.4861332 138.927865,40.1494196 130.96781,41.111879 C125.869293,41.7288401 121.299489,46.6938346 116.493155,49.709232 Z M156.120029,132.817766 C124.808951,135.121399 107.763813,115.248375 93.9876059,92.2607295 C80.4843149,69.7280285 78.619387,44.8156161 92.9308134,22.3209539 C98.7257358,13.2129285 110.949353,5.58081096 121.681027,2.75528419 C158.351878,-6.90202242 186.691201,9.94158625 210.939813,35.9099574 C214.270908,39.4749597 217.136528,43.5390319 219.842948,47.6228842 C240.169146,78.2913374 225.19514,117.628087 189.355167,126.894354 C178.491583,129.704665 167.209528,130.888434 156.120029,132.817766 L156.120029,132.817766 Z" id="Fill-3" fill="#F3B73B"></path>
                <path d="M809.443678,301.495906 C807.739024,286.546749 810.436155,272.326234 816.978081,258.831954 C824.191283,243.953738 836.030028,234.555957 851.69432,229.865484 C860.18511,227.322456 867.488537,230.589315 872.487012,236.970331 C893.143763,263.350488 907.092575,292.160649 902.003875,327.029589 C900.539821,337.051403 898.558477,346.996265 896.988559,357.004853 C894.69323,371.640189 882.334788,376.363127 871.685812,382.685226 C870.463562,383.41026 868.204324,382.712881 866.523729,382.289644 C850.531017,378.265288 836.789122,370.390919 825.177745,358.596801 C813.41118,346.646373 810.760966,331.498825 809.502625,315.82704 C809.122476,311.078852 809.443678,306.274153 809.443678,301.495906" id="Fill-28" fill="#A6D1E7"></path>
                <path d="M821.60036,183.446361 C815.909048,164.348209 825.334125,131.948967 799.245167,111.388588 C790.10239,104.183226 776.803429,96.9840854 766.292429,98.1186085 C750.261145,99.8483933 739.987111,114.308896 738.791977,130.660962 C735.709354,172.872688 741.174003,213.898039 763.193322,251.034485 C772.925425,267.4467 784.784042,268.274259 797.800703,253.535829 C813.302419,235.980795 824.264686,216.127678 821.60036,183.446361 M839.147017,247.91188 C834.101108,272.679931 815.291563,287.187821 796.880814,301.027203 C783.85898,310.816085 760.315538,305.615417 750.471676,290.142133 C739.307447,272.596886 730.281841,253.502857 721.964977,234.363154 C715.852856,220.297476 712.916641,204.874018 707.626909,190.403498 C692.600762,149.310956 708.577407,98.4752066 744.725291,73.8628646 C763.582361,61.0220941 787.065881,62.0850649 804.550926,77.3735749 C831.073976,100.563778 844.653711,130.297896 846.761339,165.386313 C847.193196,172.582127 846.823328,179.827768 846.823328,187.048496 C847.980457,187.224966 843.227963,227.875295 839.147017,247.91188" id="Fill-1" fill="#424353"></path>
            </g>
        </g>
    </g>
</svg>