<?xml version="1.0" encoding="UTF-8" standalone="no"?>
<!-- Created with Inkscape (http://www.inkscape.org/) -->

<svg
   version="1.1"
   id="svg370"
   width="10"
   height="10"
   viewBox="0 0 10 10"
   sodipodi:docname="dotyellow.svg"
   inkscape:version="1.2.1 (9c6d41e410, 2022-07-14)"
   xml:space="preserve"
   xmlns:inkscape="http://www.inkscape.org/namespaces/inkscape"
   xmlns:sodipodi="http://sodipodi.sourceforge.net/DTD/sodipodi-0.dtd"
   xmlns="http://www.w3.org/2000/svg"
   xmlns:svg="http://www.w3.org/2000/svg"><defs
     id="defs374"><inkscape:path-effect
       effect="powerstroke"
       id="path-effect4154"
       is_visible="true"
       lpeversion="1"
       offset_points="0.32412949,2.1712907"
       not_jump="true"
       sort_points="true"
       interpolator_type="CentripetalCatmullRom"
       interpolator_beta="0.75"
       start_linecap_type="round"
       linejoin_type="spiro"
       miter_limit="4"
       scale_width="1"
       end_linecap_type="round" /><inkscape:path-effect
       effect="simplify"
       id="path-effect4152"
       is_visible="true"
       lpeversion="1"
       steps="1"
       threshold="0.003941788"
       smooth_angles="0"
       helper_size="0"
       simplify_individual_paths="false"
       simplify_just_coalesce="false"
       step="1" /><inkscape:path-effect
       effect="powerstroke"
       id="path-effect4147"
       is_visible="true"
       lpeversion="1"
       offset_points="0.44636988,2.1712907"
       not_jump="true"
       sort_points="true"
       interpolator_type="CentripetalCatmullRom"
       interpolator_beta="0.75"
       start_linecap_type="round"
       linejoin_type="spiro"
       miter_limit="4"
       scale_width="1"
       end_linecap_type="round" /><inkscape:path-effect
       effect="simplify"
       id="path-effect4145"
       is_visible="true"
       lpeversion="1"
       steps="1"
       threshold="0.003941788"
       smooth_angles="0"
       helper_size="0"
       simplify_individual_paths="false"
       simplify_just_coalesce="false"
       step="1" /><filter
       style="color-interpolation-filters:sRGB"
       id="filter11521"
       inkscape:label="Chalk and Sponge"
       x="-0.0049968087"
       y="-0.0058739227"
       width="1.0099936"
       height="1.0117478"
       inkscape:menu-tooltip="Low turbulence gives sponge look and high turbulence chalk"
       inkscape:menu="Distort"><feTurbulence
         id="feTurbulence12612"
         type="fractalNoise"
         result="result1"
         numOctaves="10"
         seed="1000"
         baseFrequency="0" /><feDisplacementMap
         in2="result1"
         id="feDisplacementMap12614"
         xChannelSelector="R"
         result="result7"
         scale="0"
         yChannelSelector="A" /><feBlend
         id="feBlend12616"
         in="result7"
         mode="screen"
         result="fbSourceGraphic"
         in2="SourceGraphic" /><feColorMatrix
         id="feColorMatrix12618"
         result="fbSourceGraphicAlpha"
         values="1 0 0 -1 0 1 0 1 -1 0 1 0 0 -1 0 -0.8 -1 0 4 -2.5 " /><feGaussianBlur
         id="feGaussianBlur12620"
         result="result0"
         in="fbSourceGraphicAlpha"
         stdDeviation="0.5" /><feSpecularLighting
         id="feSpecularLighting12622"
         result="result6"
         surfaceScale="5"
         specularConstant="1"
         specularExponent="5"><feDistantLight
           id="feDistantLight12624"
           azimuth="225"
           elevation="35" /></feSpecularLighting><feComposite
         in2="SourceGraphic"
         id="feComposite12626"
         k3="1"
         k2="0.5"
         operator="arithmetic"
         result="result4"
         k1="0"
         k4="0" /><feComposite
         in2="SourceGraphic"
         id="feComposite12628"
         operator="in"
         result="fbSourceGraphic"
         in="result4" /><feColorMatrix
         result="fbSourceGraphicAlpha"
         in="fbSourceGraphic"
         values="0 0 0 -1 0 0 0 0 -1 0 0 0 0 -1 0 0 0 0 1 0"
         id="feColorMatrix15282" /><feTurbulence
         id="feTurbulence15284"
         baseFrequency="0.4"
         type="fractalNoise"
         seed="0"
         numOctaves="5"
         result="result1" /><feDisplacementMap
         in2="result1"
         id="feDisplacementMap15286"
         xChannelSelector="R"
         yChannelSelector="G"
         scale="30"
         in="fbSourceGraphic" /></filter><filter
       style="color-interpolation-filters:sRGB"
       inkscape:label="Drop Shadow"
       id="filter17709"
       x="-0.056039013"
       y="-0.065875784"
       width="1.12457"
       height="1.1464365"><feFlood
         flood-opacity="1"
         flood-color="rgb(200,201,209)"
         result="flood"
         id="feFlood17699" /><feComposite
         in="SourceGraphic"
         in2="flood"
         operator="in"
         result="composite1"
         id="feComposite17701" /><feGaussianBlur
         in="composite1"
         stdDeviation="5.60748"
         result="blur"
         id="feGaussianBlur17703" /><feOffset
         dx="3"
         dy="3"
         result="offset"
         id="feOffset17705" /><feComposite
         in="SourceGraphic"
         in2="offset"
         operator="over"
         result="composite2"
         id="feComposite17707" /></filter><filter
       style="color-interpolation-filters:sRGB"
       inkscape:label="Drop Shadow"
       id="filter17709-0"
       x="-0.0561404"
       y="-0.065995336"
       width="1.1243471"
       height="1.146173"><feFlood
         flood-opacity="0.6741258741258741"
         flood-color="rgb(0,0,0)"
         result="flood"
         id="feFlood17699-7" /><feComposite
         in="SourceGraphic"
         in2="flood"
         operator="in"
         result="composite1"
         id="feComposite17701-3" /><feGaussianBlur
         in="composite1"
         stdDeviation="5.60748"
         result="blur"
         id="feGaussianBlur17703-6" /><feOffset
         dx="3"
         dy="3"
         result="offset"
         id="feOffset17705-9" /><feComposite
         in="SourceGraphic"
         in2="offset"
         operator="over"
         result="composite2"
         id="feComposite17707-8" /></filter><filter
       y="-0.25250694"
       height="1.5050139"
       inkscape:menu-tooltip="Darkens the edge with an inner blur and adds a flexible glow"
       inkscape:menu="Shadows and Glows"
       inkscape:label="Dark and Glow"
       style="color-interpolation-filters:sRGB"
       id="filter18873"
       x="-0.21480185"
       width="1.4296037"><feGaussianBlur
         stdDeviation="21.493902439024389"
         result="result6"
         id="feGaussianBlur18863" /><feComposite
         result="result8"
         in="SourceGraphic"
         operator="atop"
         in2="result6"
         id="feComposite18865" /><feComposite
         result="result9"
         operator="over"
         in2="SourceAlpha"
         in="result8"
         id="feComposite18867" /><feColorMatrix
         values="1 0 0 0 0 0 1 0 0 0 0 0 1 0 0 0 0 0 1 0 "
         result="result10"
         id="feColorMatrix18869" /><feBlend
         in="result10"
         mode="normal"
         in2="result6"
         id="feBlend18871" /></filter><filter
       style="color-interpolation-filters:sRGB"
       id="filter18875"
       inkscape:label="filter4"
       x="0"
       y="-2.4891145e-09"
       width="1"
       height="1"><feBlend
         mode="normal"
         in2="SourceGraphic"
         id="feBlend18877" /><feGaussianBlur
         stdDeviation="54.725609756097562"
         id="feGaussianBlur19001" /></filter><filter
       inkscape:menu-tooltip="Cloudy watercolor effect"
       inkscape:menu="Textures"
       inkscape:label="Watercolor"
       style="color-interpolation-filters:sRGB"
       id="filter18963"
       x="-0.2907899"
       y="-0.3418335"
       width="1.5815798"
       height="1.6836669"><feTurbulence
         result="result1"
         baseFrequency="0.02"
         type="fractalNoise"
         seed="0"
         numOctaves="3"
         id="feTurbulence18953" /><feDisplacementMap
         result="result3"
         in="SourceGraphic"
         xChannelSelector="R"
         yChannelSelector="G"
         scale="30"
         id="feDisplacementMap18955"
         in2="result1" /><feGaussianBlur
         stdDeviation="6.0975609756097562"
         result="result5"
         in="SourceGraphic"
         id="feGaussianBlur18951" /><feComposite
         result="result4"
         in="result3"
         in2="result1"
         operator="out"
         id="feComposite18957" /><feComposite
         result="result6"
         operator="arithmetic"
         k2="1"
         k1="0.3"
         k3="0.3"
         in2="result4"
         id="feComposite18959"
         k4="0" /><feComposite
         in2="result5"
         in="result6"
         operator="over"
         id="feComposite18961"
         result="fbSourceGraphic" /><feColorMatrix
         result="fbSourceGraphicAlpha"
         in="fbSourceGraphic"
         values="0 0 0 -1 0 0 0 0 -1 0 0 0 0 -1 0 0 0 0 1 0"
         id="feColorMatrix18965" /><feGaussianBlur
         id="feGaussianBlur18967"
         stdDeviation="3"
         in="fbSourceGraphic"
         result="result1" /><feTurbulence
         id="feTurbulence18969"
         type="turbulence"
         baseFrequency="0.05"
         numOctaves="5"
         result="result0" /><feDisplacementMap
         in2="result0"
         id="feDisplacementMap18971"
         in="result1"
         xChannelSelector="R"
         yChannelSelector="G"
         scale="3"
         result="result2" /><feBlend
         in2="result2"
         id="feBlend18973"
         result="result5"
         in="result2"
         mode="multiply" /><feGaussianBlur
         id="feGaussianBlur18975"
         stdDeviation="5"
         in="result2"
         result="result4" /><feComposite
         in2="result5"
         id="feComposite18977"
         operator="arithmetic"
         in="result4"
         k2="0.25"
         k3="1"
         k1="1"
         result="result7"
         k4="0" /><feComposite
         in2="result2"
         id="feComposite18979"
         operator="in"
         result="fbSourceGraphic" /><feColorMatrix
         result="fbSourceGraphicAlpha"
         in="fbSourceGraphic"
         values="0 0 0 -1 0 0 0 0 -1 0 0 0 0 -1 0 0 0 0 1 0"
         id="feColorMatrix18981" /><feGaussianBlur
         id="feGaussianBlur18983"
         stdDeviation="15"
         result="result8"
         in="fbSourceGraphic" /><feTurbulence
         id="feTurbulence18985"
         seed="27"
         result="result7"
         type="fractalNoise"
         numOctaves="5"
         baseFrequency="0.025" /><feComposite
         in2="result8"
         id="feComposite18987"
         result="result6"
         operator="over"
         in="result7" /><feColorMatrix
         id="feColorMatrix18989"
         result="result9"
         values="1 0 0 0 0 0 1 0 0 0 0 0 1 0 0 0 0 0 6 -4" /><feDisplacementMap
         in2="result9"
         id="feDisplacementMap18991"
         in="result7"
         xChannelSelector="A"
         yChannelSelector="A"
         scale="45"
         result="result4" /><feComposite
         in2="result4"
         id="feComposite18993"
         result="result2"
         operator="in"
         in="result8" /><feComposite
         in2="result9"
         id="feComposite18995"
         result="fbSourceGraphic"
         in="result2"
         operator="in" /><feComposite
         in2="fbSourceGraphic"
         id="feComposite18997"
         operator="arithmetic"
         k2="1"
         k1="0.5"
         in="fbSourceGraphic"
         result="result91"
         k3="0"
         k4="0" /><feBlend
         in2="result91"
         id="feBlend18999"
         in="fbSourceGraphic"
         mode="multiply" /></filter><inkscape:path-effect
       effect="simplify"
       id="path-effect4145-4"
       is_visible="true"
       lpeversion="1"
       steps="1"
       threshold="0.003941788"
       smooth_angles="0"
       helper_size="0"
       simplify_individual_paths="false"
       simplify_just_coalesce="false"
       step="1" /><inkscape:path-effect
       effect="powerstroke"
       id="path-effect4147-5"
       is_visible="true"
       lpeversion="1"
       offset_points="0.44636988,2.1712907"
       not_jump="true"
       sort_points="true"
       interpolator_type="CentripetalCatmullRom"
       interpolator_beta="0.75"
       start_linecap_type="round"
       linejoin_type="spiro"
       miter_limit="4"
       scale_width="1"
       end_linecap_type="round" /><clipPath
       clipPathUnits="userSpaceOnUse"
       id="clipPath19616"><path
         style="display:inline;fill:#e6bc8e;fill-opacity:1;stroke:#090303;stroke-width:0"
         d="m 522.45191,581.32807 c 10.75889,-31.95638 41.20757,-92.03349 41.20347,-92.03873 0,0 26.25934,13.87833 49.45482,23.51235 4.41057,1.83189 -5.23239,-1.88185 0,0 32.7498,11.77862 67.68726,27.1744 104.96777,31.19743 37.29352,4.02443 61.47879,-1.23127 111.58654,-18.07542 55.77211,-18.74828 118.23542,-63.07128 118.23542,-63.07128 90.71767,-14.7924 109.73047,1.77871 110.51917,10.07643 10.0187,105.4061 40.2809,114.841 59.5561,151.95225 l 8.4395,35.15567 c 0,0 26.1096,-21.96945 35.8334,-12.12566 9.7238,9.8438 13.3063,27.63602 13.3063,41.96581 0,14.32979 -12.2827,52.71315 -24.0536,68.57827 -11.7709,15.86512 -22.5182,20.47112 -34.8009,23.54179 -12.2827,3.07067 -18.1681,-0.51178 -18.1681,-0.51178 0,0 -3.3266,-2.303 -3.8384,-6.65311 -0.5118,-4.35012 -13.3906,17.68902 -21.352,26.37418 -7.9614,8.68517 -36.1882,61.51991 -42.7021,66.58625 -6.5138,5.06635 -226.19628,191.07358 -250.97509,179.49338 -24.77881,-11.5802 -116.0964,-69.38908 -146.37109,-110.01208 -30.25776,-40.60028 -68.54707,-83.34616 -93.1769,-126.04963 -16.58261,-28.7511 -28.26354,-88.818 -33.0862,-121.49397 -6.9918,-47.37304 -0.55993,-60.93247 15.42189,-108.40215 z"
         id="path19618"
         sodipodi:nodetypes="scsssscsccsssscssssssss"
         inkscape:label="face" /></clipPath><clipPath
       id="clipPath3646"
       clipPathUnits="userSpaceOnUse"><path
         id="path3648"
         style="fill:#d7eef4"
         d="m 370.22,226.82 19.698,28.032 c 0,0 73.741,12.122 89.904,-3.283 l -5.3033,-2.0203 6.0609,-7.0711 7.5762,-8.5863 11.364,-13.89 4.7982,-8.8388 -2.0203,-3.5355 0.50508,-14.647 -37.376,-9.5964 -73.236,8.3338 -10.354,16.668 -11.617,18.435 z" /></clipPath><clipPath
       clipPathUnits="userSpaceOnUse"
       id="clipPath27131"><path
         style="display:inline;fill:#009908;fill-opacity:1;stroke:#090303;stroke-width:0"
         d="m 381.4817,598.09387 c 0,0 -88.16626,-78.25565 -64.70236,-139.4036 2.4449,-6.37166 11.73659,-31.66271 25.09639,-39.96959 42.69346,-26.54603 150.0298,-15.42307 150.0298,-15.42307 0,0 46.3209,-4.34258 85.4041,49.21592 39.0832,53.55851 57.9011,69.4813 79.614,76.71894 21.7129,7.23764 79.614,20.26538 98.4318,18.81785 18.8179,-1.44752 102.7744,-26.05549 128.8299,-43.42581 26.0555,-17.37033 111.4596,-73.82389 111.4596,-73.82389 0,0 56.45357,-43.42581 86.85157,-43.42581 30.3981,0 43.4258,23.16043 41.9783,37.63571 -1.4475,14.47527 -11.5802,78.16646 -11.5802,78.16646 0,0 -8.6852,53.55851 -5.7901,83.95658 2.895,30.39806 19.3102,72.90321 19.3102,72.90321 26.4321,-26.7071 32.424,-4.41487 97.9395,-113.43397 0,0 63.6912,-112.90712 69.4813,-140.41014 5.7901,-27.50301 4.3426,-101.3269 -8.6852,-124.48733 -13.0277,-23.16044 -79.614,-53.55851 -118.6972,-59.34861 -39.0832,-5.79011 -108.5645,-39.08324 -118.6972,-53.55851 -10.1327,-14.47527 -92.64167,-89.74668 -92.64167,-89.74668 0,0 -59.3486,-52.11098 -79.614,-52.11098 -20.2654,0 -85.4041,-15.9228 -120.1448,-2.89505 -34.7406,13.02774 -76.7189,49.21592 -83.9566,56.45356 -7.2376,7.23763 -53.5585,86.85162 -53.5585,86.85162 0,0 -55.006,83.95658 -69.4813,94.08927 -14.4752,10.13269 -76.7189,59.34861 -110.012,66.58625 -33.2932,7.23763 -120.1448,21.7129 -128.82994,36.18818 -8.68517,14.47527 -50.66345,62.24366 -50.66345,91.19421 0,28.95054 7.23763,89.74668 14.47527,99.87937 7.23763,10.13269 40.53076,50.66345 57.90112,57.90108 13.6686,5.69527 43.40224,6.73388 43.40224,6.73388 z"
         id="path27133"
         sodipodi:nodetypes="csacsssscsscsccsssscssscsssssscc" /></clipPath><clipPath
       clipPathUnits="userSpaceOnUse"
       id="clipPath28169"><path
         id="path28171"
         style="display:inline;fill:#f3f4ff;fill-opacity:1;stroke:#090303;stroke-width:0"
         d="m 1091.9634,388.1842 c -42.9742,-1.00883 -110.19671,71.99587 -164.65355,87.8273 -24.67411,-23.05171 -20.63197,-67.58314 -9.05334,-87.89236 22.85278,-40.08442 61.55198,-68.26092 98.90729,-73.08505 51.9325,-6.70666 74.7996,73.15011 74.7996,73.15011 z"
         sodipodi:nodetypes="ccssc" /></clipPath><clipPath
       clipPathUnits="userSpaceOnUse"
       id="clipPath28169-1"><path
         id="path28171-0"
         style="display:inline;fill:#f3f4ff;fill-opacity:1;stroke:#090303;stroke-width:0"
         d="m 1082.5557,357.00315 c -42.9742,-1.00883 -98.43252,93.69499 -152.88936,109.52642 -30.07911,-19.57886 -13.87859,-93.43544 6.64244,-119.49037 28.54942,-36.24832 43.17537,-39.45605 69.74382,-38.65842 30.202,0.90673 77.5215,48.90445 76.5031,48.62237 z"
         sodipodi:nodetypes="ccsac" /></clipPath><clipPath
       clipPathUnits="userSpaceOnUse"
       id="clipPath28169-8"><path
         id="path28171-7"
         style="display:inline;fill:#f3f4ff;fill-opacity:1;stroke:#090303;stroke-width:0"
         d="m 1091.9634,388.1842 c -9.4932,54.71816 -110.19672,71.99587 -164.65356,87.8273 -34.6928,-8.20977 -23.33683,-63.5761 -9.05334,-87.89236 23.40779,-39.84952 61.55199,-68.26092 98.9073,-73.08505 51.9325,-6.70666 80.3584,41.10987 74.7996,73.15011 z"
         sodipodi:nodetypes="acssa" /></clipPath><clipPath
       clipPathUnits="userSpaceOnUse"
       id="clipPath47386"><path
         style="display:inline;fill:#e6bc8e;fill-opacity:1;stroke:#000000;stroke-width:1;stroke-dasharray:none;stroke-opacity:1"
         d="m 663.0877,1104.4632 c 23.26281,-30.1205 47.41486,-72.678 35.27668,-115.80449 l 166.32002,0.6562 c -19.16904,37.02279 14.0648,89.60509 33.8752,117.31959 z"
         id="path47388"
         sodipodi:nodetypes="ccccc" /></clipPath></defs><sodipodi:namedview
     id="namedview372"
     pagecolor="#505050"
     bordercolor="#eeeeee"
     borderopacity="1"
     inkscape:showpageshadow="0"
     inkscape:pageopacity="0"
     inkscape:pagecheckerboard="0"
     inkscape:deskcolor="#505050"
     showgrid="false"
     inkscape:zoom="7.8158869"
     inkscape:cx="28.595603"
     inkscape:cy="48.043172"
     inkscape:window-width="1350"
     inkscape:window-height="1032"
     inkscape:window-x="427"
     inkscape:window-y="40"
     inkscape:window-maximized="0"
     inkscape:current-layer="g376"
     showguides="false" /><g
     inkscape:groupmode="layer"
     inkscape:label="Image"
     id="g376"><path
       d="M 2.5045247,4.1954582 C 3.714987,9.232215 4.4764615,10.313634 5.5140842,4.8498112 3.5676822,-0.45046179 1.4270473,-0.83757733 2.5045247,4.1954582 Z M 1.0759888,6.7800846 C 0.22152957,5.2164753 0.10352015,3.487731 1.0091165,1.9267611 3.038654,-0.92575399 6.9421235,1.1052346 8.4764747,2.8697419 8.6872586,3.1171275 8.8685896,3.399145 9.0398451,3.6825354 10.326043,5.8107084 9.3785201,8.5404002 7.1106442,9.1834122 4.6107255,10.083078 2.2886923,8.963405 1.0759888,6.7800846 Z"
       id="Fill-3"
       fill="#ffbd0e"
       sodipodi:nodetypes="ccccccccc"
       style="stroke-width:0.0555154" /></g></svg>
