
<?xml version="1.0" encoding="UTF-8" standalone="no"?>
<svg
   width="556px"
   height="397px"
   viewBox="0 0 556 397"
   version="1.1"
   id="svg28"
   sodipodi:docname="footerPatternHeader.svg"
   inkscape:version="1.2.1 (9c6d41e410, 2022-07-14)"
   xmlns:inkscape="http://www.inkscape.org/namespaces/inkscape"
   xmlns:sodipodi="http://sodipodi.sourceforge.net/DTD/sodipodi-0.dtd"
   xmlns="http://www.w3.org/2000/svg"
   xmlns:svg="http://www.w3.org/2000/svg"
   xmlns:rdf="http://www.w3.org/1999/02/22-rdf-syntax-ns#"
   xmlns:cc="http://creativecommons.org/ns#"
   xmlns:dc="http://purl.org/dc/elements/1.1/">
  <defs
     id="defs32" />
  <sodipodi:namedview
     id="namedview30"
     pagecolor="#505050"
     bordercolor="#eeeeee"
     borderopacity="1"
     inkscape:showpageshadow="0"
     inkscape:pageopacity="0"
     inkscape:pagecheckerboard="0"
     inkscape:deskcolor="#505050"
     showgrid="false"
     inkscape:zoom="1.0440806"
     inkscape:cx="168.56936"
     inkscape:cy="87.158022"
     inkscape:window-width="1920"
     inkscape:window-height="1009"
     inkscape:window-x="-8"
     inkscape:window-y="-8"
     inkscape:window-maximized="1"
     inkscape:current-layer="footerPattern" />
  <!-- Generator: Sketch 62 (91390) - https://sketch.com -->
  <title
     id="title18">footerPattern</title>
  <desc
     id="desc20">Created with Sketch.</desc>
  <g
     id="Page-1"
     stroke="none"
     stroke-width="1"
     fill="none"
     fill-rule="evenodd">
    <g
       id="footerPattern"
       fill-rule="nonzero"
       transform="matrix(0.7298983,0,0,1,-9.7727896,-85.242459)">
      <path
         d="m 527.15787,325.42725 c 40.85052,146.32887 66.5487,177.74644 101.56625,19.01039 C 563.03718,190.45308 490.79529,179.20652 527.15787,325.42725 Z m -48.21009,75.08907 c -28.8362,-45.42628 -32.81874,-95.6501 -2.25678,-140.9997 68.49261,-82.87182 200.22644,-23.86715 252.00754,27.39566 7.11353,7.1871 13.23304,15.38032 19.01258,23.61344 43.40647,61.82809 11.42957,141.13161 -65.10647,159.81255 -84.36694,26.13728 -162.73069,-6.3917 -203.65687,-69.82195 z"
         id="Fill-3"
         fill="#ffbd0e"
         sodipodi:nodetypes="ccccccccc"
         style="stroke-width:1.7383" />
      <path
         d="M 331.49378,305.7892 C 288.5025,360.62128 261.1203,348.06885 249.53292,301.48261 238.60128,257.78948 228.13979,214.06682 216.61086,170.40995 227.19359,146.17997 49.702471,133.42278 37.099926,166.00006 m 151.613694,9.45764"
         id="Fill-21"
         fill="#486db2"
         sodipodi:nodetypes="cccc"
         style="stroke-width:1.38999" />
      <path
         d="M 355.53921,262.10615 C 312.54793,316.93822 285.16573,304.3858 273.57834,257.79956 262.64672,214.10643 252.18523,170.38376 240.65628,126.7269 251.23901,102.49692 73.747882,89.73972 61.145336,122.317 m 151.613714,9.45766"
         id="Fill-21-4"
         fill="#486db2"
         sodipodi:nodetypes="cccc"
         style="fill:#a6d1e7;fill-opacity:1;stroke-width:1.38999" />
      <path
         style="fill:none;stroke-width:0.47889"
         d="m 62.595319,306.21866 c -2.431823,-1.70332 -4.22804,-7.77417 -5.445779,-18.40563 -0.808323,-7.05706 -0.811528,-43.19449 -0.0055,-62.49518 0.404089,-9.67659 0.436929,-15.703 0.108299,-19.87394 -0.259407,-3.29237 -0.720008,-13.26831 -1.023557,-22.16875 -0.815924,-23.92389 0.218138,-46.12791 2.93459,-63.01335 3.852311,-23.945943 11.11715,-38.897677 21.359383,-43.959664 3.221156,-1.591981 3.969419,-1.771704 7.376381,-1.771704 2.085371,0 3.875815,0.09357 3.978764,0.20794 0.102951,0.114366 0.01919,1.608693 -0.186142,3.320725 -0.62466,5.208437 -1.416299,18.694949 -1.897436,32.325093 -0.740656,20.98205 -0.582097,51.49255 0.535075,102.9614 l 1.049865,48.36791 -3.648526,8.47029 c -8.917312,20.70211 -16.560376,33.56156 -21.450419,36.0903 -1.707812,0.88314 -2.358918,0.87335 -3.684955,-0.0554 z"
         id="path495"
         transform="matrix(1.3700539,0,0,1,13.389248,85.242459)" />
    </g>
  </g>
  <metadata
     id="metadata2378">
    <rdf:RDF>
      <cc:Work
         rdf:about="">
        <dc:title>footerPattern</dc:title>
      </cc:Work>
    </rdf:RDF>
  </metadata>
</svg>
