<?xml version="1.0" encoding="UTF-8"?>
<svg width="556px" height="397px" viewBox="0 0 556 397" version="1.1" xmlns="http://www.w3.org/2000/svg" xmlns:xlink="http://www.w3.org/1999/xlink">
    <!-- Generator: Sketch 62 (91390) - https://sketch.com -->
    <title>footerPattern</title>
    <desc>Created with Sketch.</desc>
    <g id="Page-1" stroke="none" stroke-width="1" fill="none" fill-rule="evenodd">
        <g id="footerPattern" fill-rule="nonzero">
            <path d="M315.426424,151.577299 C312.5049,132.506473 309.133165,113.930128 307.060809,95.2121066 C306.257355,87.9518587 307.12176,79.9276667 309.482252,73.0285561 C313.085326,62.498627 319.609925,61.44994 325.476522,70.6756079 C331.437317,80.0540647 335.122122,90.8881824 340.377818,102.336234 C340.683961,99.3957428 340.668724,96.737217 341.272699,94.2287021 C344.307815,81.6111219 346.520083,68.6685182 350.97371,56.5620861 C354.251247,47.6558858 362.001805,48.0045221 366.843306,56.4593009 C369.213495,60.5971005 371.6197,65.1988225 372.183503,69.8172125 C376.623277,106.137898 381.691962,142.40719 368.756357,178.390351 C365.390163,187.754918 360.102607,190.675963 351.375437,190.930148 C334.556934,191.419072 317.745358,192.096899 300.92824,192.692775 C298.172948,192.790005 295.373328,193.20809 292.66929,192.870566 C286.467459,192.098288 278.693351,194.055374 276.102906,185.62143 C273.537395,177.273603 275.377027,168.654924 282.364304,164.142097 C290.749313,158.725038 300.749541,155.785937 310.143023,152.005107 C311.916163,151.291167 314.120119,151.662027 315.426424,151.577299" id="Fill-35" fill="#F69A94"></path>
            <path d="M422.595188,264.384084 C422.397414,266.513668 422.197774,268.641413 422,270.769157 C427.905232,275.888985 434.398188,285.608199 439.570163,284.97006 C446.106033,284.159052 455.119674,275.712439 456.653355,269.112201 C458.922158,259.348851 449.671561,252.985846 440.064598,254.133394 C433.911216,254.869002 428.395935,260.788803 422.595188,264.384084 Z M469.143049,363.782141 C431.827106,366.536109 411.513038,342.778133 395.094818,315.296662 C379.001855,288.359072 376.779269,258.576564 393.835353,231.684449 C400.74163,220.795907 415.309503,211.671797 428.099306,208.293911 C471.802923,196.74871 505.577185,216.885054 534.476215,247.929949 C538.44615,252.191869 541.861342,257.050422 545.086801,261.932621 C569.311174,298.596411 551.46544,345.623051 508.752049,356.700769 C495.805038,360.060464 482.3593,361.475647 469.143049,363.782141 L469.143049,363.782141 Z" id="Fill-3" fill="#FFBD0E"></path>
            <path d="M46.454936,16.8892403 C47.8360015,10.8135585 43.0190805,10.101757 39.4907804,8.42155774 C34.4231387,6.01216064 25.4700247,6.14263341 23.077672,2.8967609 C21.6013607,1.07014216 19.9513656,0.504760165 18.2383403,0.191625524 C9.79647265,-1.35665131 6.66036156,6.85443484 2.50455914,11.2528168 C-7.56909471,21.9066431 16.1989576,73.7608699 13.1931093,81.7385548 C10.9296186,89.1552067 17.4329522,102.960675 16.8894903,106.342819 C16.7326147,109.484314 17.1570192,126.483465 17.3026894,137.38519 C17.4805751,147.941887 26.0695136,140.963043 27.8707815,137.753413 C28.3386069,136.613951 37.0410001,113.730477 37.5298356,108.504318 C39.4921811,99.5959275 37.1348453,70.0626918 39.0761807,61.3920516 C39.066376,61.3935012 40.8788493,41.8095389 40.8088155,41.0209035 C40.5777042,40.2554633 40.3451921,39.4914727 40.1126801,38.7274822 C39.126605,38.1649996 39.126605,38.1635499 40.1154815,38.7245828 C40.3451921,39.4914727 40.5777042,40.2554633 40.8130176,41.0223532 C41.5385671,40.3699894 41.9251534,40.1829784 42.9168312,39.0449659 C46.8611318,34.52191 46.2490368,28.1026498 47.9130386,22.261819 C48.5139281,20.1568583 45.7798107,18.7419536 46.454936,16.8892403" id="Fill-23" fill="#F0C7CF"></path>
            <path d="M138.969859,346.670824 C138.964313,364.42706 133.429251,379.77957 119.308741,391.306083 C112.933436,396.508609 104.837437,399.508413 98.4635187,394.242121 C93.2445872,389.932328 87.9299845,381.969816 87.9993157,375.68603 C88.289098,349.543095 90.7765484,323.430657 92.1006928,297.290495 C92.8313987,282.843193 93.347191,268.352919 93.1031602,253.895913 C92.4861505,217.523978 95.8124568,181.689901 104.256477,146.209313 C113.859644,105.851964 141.88991,93.5297542 178.201971,95.1363962 C190.539392,95.6825713 203.545124,102.14934 211.792256,114.795927 C232.268659,146.194065 243.520421,179.972361 245.04284,217.648739 C246.712233,258.993085 250.881554,300.233464 252.940564,341.570879 C253.436945,351.550358 250.740128,361.960954 247.986462,371.744974 C245.598842,380.224551 237.841158,382.474404 229.642555,382.046058 C221.424541,381.616327 217.176186,376.264088 215.928301,368.856068 C214.159078,358.348436 213.134426,347.71327 211.846331,337.125236 C206.365344,292.02143 201.120068,246.887128 195.339589,201.820751 C192.738442,181.547119 178.685873,167.274483 166.40114,152.630336 C158.798749,143.567156 141.069079,149.709547 139.452375,161.642225 C137.513994,175.948132 136.716734,190.4592 136.284134,204.906502 C135.768341,222.149832 136.162118,239.420887 136.162118,256.680852 C137.099419,256.680852 138.978178,316.674166 138.969859,346.670824" id="Fill-21" fill="#486DB2"></path>
        </g>
    </g>
</svg>